<?xml version="1.0" encoding="UTF-8"?> <svg xmlns="http://www.w3.org/2000/svg" xmlns:xlink="http://www.w3.org/1999/xlink" width="224px" height="70px" viewBox="0 0 224 70" version="1.1"><title>no-centered</title><g id="Key-Page-Amends" stroke="none" stroke-width="1" fill="none" fill-rule="evenodd"><g id="AH-Brand-Homepage-amend-V1-210507" transform="translate(-1196.000000, -1475.000000)" fill="#FFFFFF" fill-rule="nonzero"><g id="Group-11" transform="translate(38.000000, 1148.000000)"><g id="Group-9" transform="translate(1158.000000, 0.000000)"><g id="no-centered" transform="translate(0.000000, 327.000000)"><path d="M68.4647182,44.5453413 C67.1107439,48.8761527 65.7998669,53.2213504 64.4720588,57.5608963 C63.0072629,53.7634083 61.9508653,49.992124 60.8734322,46.2270053 C60.3814044,44.5083478 59.2439429,42.6925823 61.721526,41.3972952 L52.3062997,41.3972952 C54.5382381,42.6672622 55.7253674,45.2107841 55.2666755,47.7401432 C54.7797783,51.1091229 53.3170346,54.3378355 52.097996,58.1615273 C50.940525,54.0804222 49.9164504,50.5737444 48.958048,47.0501112 C48.432158,45.1177134 46.9216994,43.0291206 50.1447636,41.4466199 L40.1528541,41.4466199 C42.0599107,42.4639418 42.4616394,44.1825993 42.9233964,45.893036 C44.8104436,52.8406254 46.7359705,59.7779388 48.6184,66.7270696 C48.8621052,67.6272454 48.8857061,68.4832344 50.2268538,68.4962269 C51.5300348,68.5089244 51.6865191,67.6806804 51.9517729,66.7938635 C53.4119513,61.9066078 54.8765763,57.0207224 56.3456478,52.136207 L56.7560985,52.0986997 C58.0839066,56.9342329 59.4139379,61.7687385 60.7461925,66.6022164 C60.9734796,67.4206982 60.8606056,68.4262027 62.2746083,68.4647376 C63.6742453,68.5027588 63.8445823,67.6323833 64.1298456,66.6731207 C65.9163323,60.6498556 67.6776789,54.6183697 69.5349684,48.6166842 C70.3158509,46.0929038 70.3045635,43.1144113 73.1500131,41.4121953 L67.0368627,41.4121953 C68.034771,42.3976617 68.884404,43.2043261 68.4647182,44.5453413 Z" id="Path"></path><path d="M99.4963313,6.43173525 C99.5028301,11.8023044 99.5028301,17.1728736 99.4963313,22.5434427 C99.4927398,24.5852797 99.8467536,26.7853668 97.3568569,28.0292741 L107.038363,28.0292741 C105.954773,26.9240926 104.583868,26.5392571 104.646975,24.9007523 C104.770623,21.6972158 104.681863,18.4839172 104.631583,15.2757566 C104.615678,14.2610036 105.081539,13.69788 106.016854,13.8628095 C107.69611,14.1597853 109.676535,12.8542221 111.036153,14.7362677 C111.225987,14.9993327 111.090025,15.5028557 111.091051,15.8953981 C111.094129,17.7964542 111.152618,19.6975103 111.077198,21.5929147 C110.986386,23.8628784 111.914005,26.4847945 109.099339,28.0092359 L118.3981,28.0092359 C115.970797,26.9708483 116.327889,24.9233595 116.323784,23.0546727 C116.311471,17.6186798 116.311471,12.1826869 116.323784,6.74669401 C116.329941,4.78398202 115.859462,2.60085028 118.830099,1.78442375 C116.85224,1.14268886 109.890483,1.27627659 108.880774,1.93137025 C110.974072,2.50528368 111.14954,4.07339807 111.096181,5.78486237 C111.015581,6.96153552 111.022269,8.14257575 111.116191,9.31825775 C111.347069,11.2706938 110.529246,11.7629132 108.673496,11.7094781 C104.642357,11.5933595 104.577198,11.6812191 104.667497,7.58983808 C104.715212,5.44369987 103.80042,2.87110853 106.727447,1.49875154 L97.3178641,1.49875154 C99.6928346,2.53662541 99.494279,4.53530333 99.4963313,6.43173525 Z" id="Path"></path><path d="M120.813602,46.2963682 C120.128149,43.2135745 117.006672,40.8578063 113.277214,40.8095092 C109.678587,40.7632673 106.105614,41.5329381 102.489543,41.2719282 C102.392574,41.264735 102.276622,41.5288277 102.047796,41.8247759 C104.233959,42.3462818 104.263716,43.9698865 104.258586,45.678268 C104.241142,51.3762984 104.28116,57.0753563 104.271412,62.7739005 C104.268334,64.691912 104.55411,66.7681735 102.167852,67.8754102 L111.833454,67.8754102 C110.75089,66.8586021 109.443091,66.539533 109.458996,65.0983269 C109.500554,61.3789363 109.472849,57.6585181 109.472849,53.9689279 C111.349122,53.4299528 112.175154,54.0840188 112.602536,55.8617632 C113.357612,59.0531521 114.581062,62.1147778 116.232972,64.9467562 C117.20061,66.5996475 118.324732,68.1369339 119.970639,69.1825148 C121.209687,69.9696548 122.519538,70.4156323 124.038206,69.4512316 C119.847504,64.7407229 118.497121,58.9728158 117.068239,53.2788959 C120.590933,51.0741846 121.492385,49.3339476 120.813602,46.2963682 Z M115.380261,48.3238188 C115.210972,50.1668187 113.65998,51.5726408 111.811905,51.5581832 C110.180363,51.6331978 109.122427,51.1800272 109.400507,49.2424913 C109.45639,48.5266691 109.461705,47.8077875 109.416412,47.0912151 C109.416412,46.3718966 109.40769,45.6525781 109.416412,44.9373699 C109.448222,42.8970743 110.480505,42.1587452 112.456826,42.7542382 C114.536785,43.3805591 115.74864,45.6916268 115.380261,48.3238188 L115.380261,48.3238188 Z" id="Shape"></path><path d="M83.5026062,44.8294722 C81.6509604,47.8393064 81.2600061,51.2072585 81.1691939,54.3660945 C81.2805286,57.7319914 81.6042716,60.7885813 83.0228919,63.6036858 C84.5312983,66.5965647 86.7590195,68.6450811 90.3114704,68.7802102 C93.704818,69.0436419 96.8919153,67.1240627 98.2501003,63.9987972 C101.271018,57.7386708 101.367987,51.2668592 98.1618534,45.0909958 C94.9387892,38.8843045 87.1735747,38.8622112 83.5026062,44.8294722 Z M93.6694703,64.0188353 C93.2236182,65.4487378 92.6197426,66.8169844 90.8188901,66.7573837 C89.0390732,66.6988107 88.4187796,65.3285089 88.1058109,63.8667508 C86.8818485,58.0357721 86.8208217,52.0200264 87.9262387,46.1653494 C88.037209,45.6546045 88.2080461,45.1587773 88.4351976,44.6881774 C88.9041376,43.6323206 89.5249443,42.7208413 90.8512131,42.7120444 C92.177482,42.7033721 92.8239419,43.6143376 93.2800552,44.6696807 C94.6653264,47.8804103 94.4452222,51.3213219 94.6904665,54.6887602 C94.4913979,57.8219062 94.6176115,60.9786869 93.6694703,64.0188353 L93.6694703,64.0188353 Z" id="Shape"></path><path d="M129.704991,28.9222567 C133.245128,28.9505156 135.773505,27.1177948 137.439934,24.0617186 C139.02017,21.1633787 139.467048,18.0122498 139.461404,14.7670956 C139.48911,11.7921997 139.130991,8.88255624 137.83448,6.1650736 C136.261428,2.86699814 133.908006,0.632486507 129.987176,0.620619429 C126.087894,0.608851755 123.522577,2.70515147 122.066503,6.05460682 C119.510421,11.9329806 119.646896,17.9233626 122.208108,23.7678256 C123.595945,26.9348823 126.123808,28.8939977 129.704991,28.9222567 Z M126.766164,7.57904831 C126.898315,6.40542272 127.263044,5.27001419 127.838979,4.23935513 C129.039034,2.2494118 130.975336,2.24530141 132.148712,4.2578519 C132.882639,5.6505253 133.314655,7.18269511 133.416491,8.7541065 C133.681408,10.6352276 133.806426,12.5334567 133.790514,14.4331263 C133.846171,17.3053135 133.609106,20.1756947 133.083,22.9996962 C132.989623,23.4456737 132.859818,23.8849718 132.723856,24.3196457 C132.284673,25.7069028 131.617691,26.9066234 129.919964,26.8480503 C128.222238,26.7894772 127.611179,25.512173 127.260757,24.1321091 C126.956086,22.9296795 126.737648,21.7069752 126.607114,20.4733467 C126.107832,16.186197 126.161287,11.8525393 126.766164,7.57904831 L126.766164,7.57904831 Z" id="Shape"></path><path d="M20.7580318,41.361843 L14.3888628,41.361843 C14.867551,42.4290035 16.0470837,42.6915547 16.0229697,43.8897339 C15.9434449,47.8742447 15.993212,51.8618384 15.993212,56.4325938 C12.6937014,51.6624844 10.1083749,47.1174189 7.43993224,42.6247609 C7.14081628,42.1212379 6.95252202,41.3289599 6.37224732,41.2991596 C4.33846404,41.1963998 2.29595868,41.2590833 0.256531696,41.2590833 L0,41.7548992 C2.77721214,43.1478082 2.38728396,45.6135294 2.39395379,47.932304 C2.40729343,52.3895099 2.43910336,56.8472296 2.38061414,61.3039217 C2.35136952,63.5692612 2.98602894,66.0534792 0.0271923598,67.8867138 L6.43689331,67.8867138 C4.97517571,66.025734 4.94593109,66.0262478 4.92027793,63.3519243 C4.88231123,59.3540547 4.88231123,55.3551574 4.89308557,51.3572878 C4.89308557,50.9611488 4.6473282,50.4324497 5.31636286,50.1339325 C8.00681679,54.001331 10.4098082,58.0615163 12.5059202,62.2816811 C13.3745365,64.0799774 14.5130242,65.8721081 12.707041,67.8332787 L20.1192678,67.8332787 C18.671916,66.5945095 18.582643,65.1101443 18.5800777,63.5759406 C18.5682772,58.7261924 18.4574555,53.8743889 18.5395457,49.0266958 C18.582643,46.4078625 17.692478,43.5105503 20.7580318,41.361843 Z" id="Path"></path><path d="M204.354688,41.361843 L198.195362,41.361843 C200.643187,46.1756254 198.985993,51.1399509 199.334876,55.97223 C196.12669,51.7035883 193.515198,47.1739368 190.862147,42.6689476 C190.540969,42.1243207 190.379867,41.2873422 189.62669,41.2580557 C187.638057,41.1809858 185.644292,41.2318519 183.65258,41.2318519 L183.427858,41.8535486 C185.78795,42.9253333 185.826943,44.9414803 185.816682,47.0146591 C185.792055,51.862866 185.820786,56.7110729 185.803342,61.5592798 C185.795646,63.7860844 186.284082,66.1721667 183.455051,67.8343063 L189.744182,67.8343063 C188.034655,66.8200672 188.277334,65.269422 188.269638,63.8364367 C188.246037,59.6434947 188.239538,55.4505528 188.250141,51.2576108 C188.250141,50.886648 187.939225,50.3327727 188.681115,50.0984804 C191.305664,53.8487353 193.650397,57.7877583 195.69623,61.8834869 C196.625388,63.7979018 198.096341,65.726703 196.136439,67.8497203 L203.531221,67.8497203 C201.952525,66.5200086 201.956117,64.9056523 201.965352,63.2373471 C201.992544,58.0618503 201.942264,52.8858397 201.965352,47.7103429 C201.9751,45.5004936 201.376355,43.0933455 204.354688,41.361843 Z" id="Path"></path><path d="M220.317116,53.8743889 C218.632729,52.6340782 216.782623,51.6203529 215.032563,50.4653328 C214.02015,49.8635138 213.069912,49.162507 212.195836,48.3726297 C211.107115,47.2859449 210.666907,45.9063948 211.450355,44.4245986 C212.240472,42.9320126 213.615482,42.6031813 215.153133,42.854429 C216.940133,43.145753 218.231514,44.2278136 219.287911,45.6361365 C219.688198,46.2342617 220.140054,46.796109 220.638294,47.3152315 C221.187272,47.8290304 221.81167,47.9035313 222.232895,47.0732322 C223.006082,45.5498183 220.684983,40.5546649 219.085764,40.7334669 C217.009397,40.9662179 215.045903,40.4375187 213.026485,40.4560155 C209.691573,40.4863296 207.023644,42.2373565 206.116035,44.998512 C205.175076,47.866024 206.25764,51.0186943 208.968154,52.9382472 C210.999885,54.3768842 213.141412,55.6582988 215.192126,57.0702183 C216.479012,57.8752883 217.514328,59.0260227 218.180207,60.3914147 C218.80875,61.6870416 218.734931,63.214066 217.984355,64.4428326 C217.233778,65.6715991 215.909852,66.4328203 214.471785,66.4624631 C212.662331,66.6034124 210.912187,65.781045 209.863963,64.2973144 C208.963537,63.0950248 208.204203,61.7879203 207.379197,60.5285991 C207.055454,60.0343245 206.737354,59.4151967 206.008291,59.7964356 C205.263836,60.1853814 205.625546,60.8122161 205.854372,61.3378324 C206.751287,63.3079597 207.312636,65.414516 207.515159,67.5702137 C207.566465,68.2098934 207.897904,68.954388 208.56386,68.6491915 C210.821339,67.61029 212.958248,68.9939506 214.994597,68.7874034 C219.15041,68.7874034 222.434016,66.5975923 223.551981,63.1869948 C224.71407,59.6474339 223.608418,56.2974647 220.317116,53.8743889 Z" id="Path"></path><path d="M34.6784677,27.6187487 C31.9484574,26.5752231 32.2916968,24.5976109 32.8314395,22.5357357 C33.0797622,21.5867491 33.2531776,20.6177243 33.4471156,19.6584616 C33.62874,18.7644514 34.1079412,18.1972174 35.0740396,18.3965714 C36.8887448,18.7701032 38.9589556,17.4614573 40.5530435,19.2243015 C40.6337253,19.330015 40.6788168,19.458647 40.6818224,19.5916678 C40.8224018,22.4113964 43.276384,25.5296422 39.0005137,27.9943358 L49.4782943,27.9943358 C47.3326632,26.7858806 47.3916655,24.6361458 46.9073336,22.8224355 C45.607231,17.9552181 44.3799834,13.0679625 43.1542749,8.17916548 C42.5432164,5.74118946 40.9563114,3.34277597 42.8608027,0.505578166 C39.828444,1.38781909 36.7060389,1.92318616 33.5533197,2.1014377 C35.4311317,4.58925222 35.4131745,4.58360043 34.5620023,7.50249226 C33.4630205,11.2712076 32.5015397,15.0835958 31.2840403,18.8137761 C30.2645833,21.9381876 30.3235856,25.5270732 27.1728633,28.0487985 L34.3983351,28.0487985 L34.6784677,27.6187487 Z M37.262768,6.64598941 C38.8194023,9.55820186 39.2678197,12.6887789 39.9168449,16.025903 C37.8830616,16.1872359 36.2838431,16.2956475 34.4845297,15.94164 C35.0321304,12.7420504 35.9650142,9.62073369 37.262768,6.64598941 L37.262768,6.64598941 Z" id="Shape"></path><path d="M180.231987,62.8468599 C178.792844,57.2721413 177.347031,51.6974227 175.853504,46.1376043 C175.361989,44.3079662 174.637543,42.5158355 176.233684,40.600393 C173.098866,41.0895296 170.124638,41.7985722 166.805631,42.2697258 C169.517684,43.7695049 168.396127,45.6047948 167.839966,47.4077153 C167.050362,49.971572 166.454695,52.5970847 165.568122,55.1270307 C164.074081,59.391562 164.036114,64.203803 160.854608,67.8635929 L168.021591,67.8635929 C167.033431,66.7758805 165.613784,66.4629769 165.737946,65.0156053 C165.928292,62.7944524 165.984216,60.3251347 167.304841,58.6444983 C168.283766,57.4000773 170.532523,58.3660193 172.206136,58.2010898 C172.402744,58.1902459 172.599908,58.195573 172.795646,58.2170176 C173.275523,58.2115238 173.696335,58.5368343 173.812537,59.00313 C174.369414,61.0226446 174.704717,63.0969522 174.812498,65.1892693 C174.855082,66.5975923 173.332823,66.6792863 172.675589,67.8486927 L182.720344,67.8486927 C180.802513,66.5975923 180.695283,64.6389907 180.231987,62.8468599 Z M171.601234,56.1351042 C166.842058,56.1032487 167.491083,56.3776174 168.542863,52.3694717 C169.061057,50.3944286 169.399679,48.338719 170.444276,46.4479388 C171.555058,47.1256397 171.442698,48.1378236 171.661776,48.9655537 C172.147134,50.7941642 172.503713,52.6566854 172.974705,54.48992 C173.297422,55.7405067 172.808985,56.1412698 171.601234,56.1330491 L171.601234,56.1351042 Z" id="Shape"></path><path d="M160.939264,27.7949818 C161.24379,28.1626815 161.732118,28.32256 162.19473,28.2060209 C166.709688,28.1495031 171.240551,27.674239 175.720107,28.6746056 C176.181864,28.7773654 176.694928,28.8246349 176.913493,28.2949082 C177.673339,26.4560217 178.816445,24.8128927 179.928253,22.9909616 C178.902126,22.6354127 178.606602,23.0474795 178.367514,23.4158733 C176.62002,26.107666 173.987492,26.4698943 171.099971,26.2469055 C169.313998,26.1086936 168.286332,25.2321526 168.256061,23.4107353 C168.208859,20.5966585 168.227842,17.7810403 168.204755,14.9664496 C168.196032,13.9558071 168.687034,13.5874132 169.667498,13.6100204 C172.257442,13.6706487 174.999253,13.1383529 176.885787,15.670868 C176.981405,15.8491818 177.15664,15.9707343 177.356947,15.9976904 C177.557254,16.0246466 177.758316,15.9537338 177.897548,15.8070247 C178.164403,15.5828643 178.202958,15.1860259 177.984256,14.9145559 C176.927345,13.5272987 176.354767,11.8769765 175.653922,10.1398223 C173.601668,12.4806903 171.052769,11.9483946 169.006673,11.4551476 C167.323312,11.0497602 168.467956,8.81576238 168.226816,7.41720164 C168.161306,6.63461123 168.153589,5.84824482 168.203728,5.06451625 C168.180641,3.92542398 168.704991,3.40905603 169.864002,3.38644888 C172.111752,3.24830765 174.329825,3.9570193 176.08233,5.37330942 C176.56307,5.7720174 176.923754,6.68092774 178.024788,5.98627156 C176.98173,4.35033571 175.960734,2.71799644 174.901258,1.11134713 C174.636679,0.799955052 174.203739,0.691358486 173.823825,0.841088881 C170.065122,1.67755357 166.267427,1.4679236 162.467167,1.29323196 C161.959747,1.270111 161.265059,0.962345433 160.944908,1.94113243 C163.048467,2.52326664 163.075147,4.2054444 163.066425,5.95441603 C163.042311,10.7990263 163.164933,15.6472332 163.015118,20.4877331 C162.937133,23.0788212 164.203373,26.1184558 160.939264,27.7949818 Z" id="Path"></path><path d="M85.9981465,27.7543917 C86.592787,26.5212742 87.3321113,25.3575196 88.0078158,24.1619094 C88.2422858,23.7462461 88.8287172,23.3840178 88.2351029,22.8147286 C87.4757691,22.6811408 87.2187243,23.3120859 86.8903637,23.756522 C84.8653025,26.501236 82.0254967,26.537202 79.0676862,26.0953349 C77.9556495,26.0075862 77.1033203,25.0692199 77.1211237,23.9522794 C77.0523732,20.8741099 77.074948,17.7938852 77.0575038,14.7141743 C77.0079198,14.4152647 77.1052183,14.110744 77.3188637,13.896181 C77.5325091,13.681618 77.836315,13.5833116 78.134937,13.6321137 C80.7720828,13.6989076 83.6077842,13.015555 85.589235,15.5943119 C85.8298617,15.9077293 86.1782318,16.1682253 86.6015091,15.8620012 C86.7767002,15.7602333 86.894993,15.5829944 86.9218918,15.3819693 C86.9487906,15.1809442 86.8812664,14.9787701 86.73901,14.8344033 C85.6744035,13.498526 85.1290171,11.8862249 84.4615216,10.150612 C82.5093154,12.4426692 80.0799603,11.5111517 77.8660917,11.6015803 C77.0964967,11.632922 77.0544255,10.8925377 77.0549385,10.2790618 C77.0549385,8.5095382 77.0898268,6.73950082 77.0415989,4.97100484 C77.0077367,3.73429077 77.6572749,3.40134905 78.7495869,3.38336608 C81.0022731,3.25579029 83.2187135,3.99358034 84.9468796,5.44626887 C85.3809312,5.8192869 85.7344319,6.58895773 86.7939078,5.97650938 C85.7441801,4.33235274 84.7257493,2.70258248 83.6667865,1.10107115 C83.4307773,0.743980879 82.991595,0.758881049 82.5847358,0.847254468 C78.8214158,1.6647086 75.0201291,1.469465 71.2167902,1.28860777 C70.6919263,1.26343162 70.017248,0.992145772 69.637068,1.90516651 C71.9704803,2.52789083 71.8827465,4.42278136 71.8842857,6.26577819 C71.8889032,11.5738351 71.9012168,16.8818921 71.8781289,22.1904628 C71.8688938,24.3252975 72.3362945,26.6692483 69.6001274,27.7533641 C70.3538176,28.4968311 71.1080208,28.1787896 71.7832122,28.1721102 C75.9769923,28.1304925 80.1851383,27.702498 84.3368472,28.6550812 C85.2039244,28.8590594 85.6251494,28.5276591 85.9981465,27.7543917 Z" id="Path"></path><path d="M39.7726741,63.3447311 C38.0128667,66.0622138 35.3551983,66.319627 32.479478,66.1038315 C30.6565638,65.9671609 29.7202231,65.0859957 29.7258668,63.2347781 C29.7345889,60.4833848 29.7494677,57.7319914 29.7104749,54.9816256 C29.695596,53.922686 30.0444791,53.4145388 31.1809146,53.4402288 C33.7241698,53.4916087 36.3741422,53.0923869 38.2381015,55.4805244 C38.3368772,55.6560686 38.5046475,55.782076 38.7005861,55.8278834 C38.8965247,55.8736907 39.1026658,55.8350978 39.2688459,55.7214961 C39.4449753,55.6225016 39.561948,55.4438311 39.5823686,55.2426041 C39.6027892,55.0413772 39.5241004,54.8427938 39.3714585,54.7103398 C38.3191655,53.3847385 37.8107197,51.7662718 37.0211151,50.0214105 C36.361502,51.0264145 35.2189878,51.6055315 34.0196943,51.5427692 C28.7941437,51.4348715 29.8038524,52.1906697 29.7351019,47.352225 C29.6725082,42.9797959 30.7355755,42.287195 34.9524436,43.7895431 C35.9330048,44.166056 36.8436428,44.7044345 37.6465394,45.3823198 C38.071869,45.7219409 38.3561061,46.376007 39.3822329,46.1016384 C38.6978063,44.101419 37.2022265,42.637092 36.1807173,40.917407 C36.0806699,40.7488809 35.555293,40.7339807 35.2572032,40.7956366 C31.4210282,41.5940802 27.5473996,41.2215759 23.6840323,41.2133552 C23.2304842,41.2133552 22.6009555,40.9168932 22.3885472,41.6757742 C24.4561927,43.1144113 24.4946724,43.1144113 24.5116035,46.0117235 C24.5423873,51.1861928 24.5716319,56.3616896 24.4982639,61.535645 C24.4659409,63.7963604 25.2868423,66.4198178 22.2530985,67.6406041 C22.8877579,68.2350695 23.4331443,68.0516433 23.9256851,68.0547261 C28.3734317,68.103537 32.8478575,67.510613 37.2504545,68.6199049 C37.6609052,68.7226647 38.1000875,68.7360235 38.2832511,68.3116256 C39.1848002,66.414528 40.2262966,64.5873641 41.3990851,62.8453185 C40.2985641,62.5688947 40.0030396,62.9881546 39.7726741,63.3447311 Z" id="Path"></path><path d="M159.421622,63.2131986 C157.6023,66.0863623 154.827653,66.3720345 151.807249,66.0781415 C150.156724,65.9178362 149.282464,65.0361573 149.254758,63.4171768 C149.206017,60.5373336 149.23834,57.6559491 149.217305,54.7755922 C149.210635,53.8851786 149.58158,53.439715 150.499963,53.4510185 C153.095551,53.4880121 155.828126,53.0096652 157.757758,55.4548344 C157.855438,55.6295759 158.018706,55.758061 158.211346,55.8117881 C158.403986,55.8655153 158.610071,55.8400426 158.783885,55.7410205 C158.957723,55.6368719 159.074152,55.4585263 159.099685,55.2572815 C159.125217,55.0560367 159.057023,54.8542 158.914716,54.709826 C157.871145,53.3708659 157.337046,51.76062 156.599774,50.0270623 C155.917498,51.0351727 154.755357,51.6087784 153.541403,51.5366036 C148.318931,51.443606 149.291699,52.1505934 149.228592,47.3583906 C149.171129,43.0008617 150.23317,42.3056917 154.465943,43.7689911 C155.447514,44.1413718 156.358316,44.6790094 157.159013,45.3586851 C157.590499,45.7008752 157.867553,46.3513446 159.131228,46.0728656 C157.943487,44.2298688 156.905046,42.5600222 155.781951,40.9482349 C155.638293,40.7427153 155.033391,40.7427153 154.676299,40.8161886 C151.101273,41.5401313 147.493412,41.2313381 143.893246,41.2272277 C143.244734,41.2272277 142.456668,40.8161886 141.789686,41.8139861 C144.351411,42.350906 144.052295,44.3614013 144.064096,46.163808 C144.098984,51.4009607 144.108219,56.639141 144.064096,61.8762937 C144.045626,64.0460667 144.715173,66.5097326 141.861002,67.5825448 C142.348925,68.2366109 142.84557,68.0501019 143.271413,68.0495881 C146.484729,68.0459915 149.826311,67.4510123 152.878525,68.1395029 C156.754719,69.0129611 158.762336,67.7767608 159.996766,64.356915 C160.193783,63.810233 161.057268,63.4397839 160.415426,62.6911788 C160.005597,62.6275487 159.602326,62.8393764 159.421622,63.2131986 L159.421622,63.2131986 Z" id="Path"></path><path d="M67.5396649,23.8320505 C67.8475029,23.1558911 68.4929366,22.2906536 67.7638736,21.6699845 C66.8998748,20.9337106 66.3873245,22.0178264 65.8270593,22.4499313 C63.0400989,24.5996661 59.8180608,24.4182951 57.5195368,21.932022 C54.0609765,18.190538 53.7803308,8.64980532 57.0131433,4.73106073 C59.1977672,2.08242714 62.7081469,2.11582407 64.7547568,4.86567605 C65.2816844,5.69206179 65.7487443,6.55523226 66.1523415,7.44854337 C66.3724457,7.85958253 66.6105071,8.30504622 67.1835989,8.14628235 C67.7700303,7.98392188 67.7802916,7.45111237 67.662287,7.01592466 C67.0020907,4.74170997 66.558701,2.40993203 66.3380704,0.0518936939 C64.6388045,1.37389839 63.2956045,1.05328785 61.8477396,0.745522276 C58.8817201,0.115090965 56.2702275,1.01115633 54.0666202,3.0833075 C48.7579533,8.07640569 47.953983,19.8100323 52.5305084,25.4849417 C56.7484026,30.7149012 64.8045239,29.8373326 67.5396649,23.8320505 Z" id="Path"></path><path d="M141.52905,5.89224635 C142.227329,4.93658031 142.878919,3.94957253 143.991754,3.40700084 C146.168682,2.34549221 147.266638,2.96307854 147.27536,5.31576393 C147.296908,10.2328199 147.405678,15.1545 147.234315,20.0653904 C147.139911,22.7833868 148.516973,25.9643161 144.77161,28.0344121 L154.557268,28.0344121 L154.777886,27.5534963 C152.412663,27.022742 152.422925,25.2676047 152.421385,23.5294229 C152.416255,17.5631895 152.40702,11.5974699 152.43216,5.63123649 C152.435751,4.76445766 152.051467,3.62331019 153.150449,3.18658109 C154.228718,2.79857373 155.43086,2.9995746 156.324772,3.7173354 C157.086763,4.3408993 157.739307,5.0876346 158.255429,5.92667088 C158.614574,6.42145927 158.798763,7.19575429 160.013184,6.93577202 C159.346202,4.7932304 158.727961,2.65325778 157.998898,0.551306273 C157.812142,0.0118173758 157.207241,0.191647008 156.801921,0.448546483 C155.442303,1.30299414 153.914913,1.30607693 152.412663,1.25469704 C148.920241,1.13446808 145.344189,1.88153175 141.78866,1.46030445e-14 C141.311511,2.51761485 140.405954,4.64011831 139.677917,6.82427765 C140.94621,7.30981766 141.142713,6.41889028 141.52905,5.89224635 Z" id="Path"></path><path d="M180.098077,27.7225361 C180.872803,28.4038335 181.54389,28.193176 182.150331,28.1926622 C184.443211,28.1926622 186.748918,28.295422 189.02538,28.0940128 C190.905244,27.9254867 192.980073,29.6014989 194.412546,28.3724918 C195.741893,27.2339133 196.132847,25.0605438 197.239012,23.5042468 C197.531971,23.0932076 197.927543,22.6431197 197.136399,21.9186632 C196.331403,22.2269426 196.013816,22.9842822 195.558216,23.5772062 C194.633088,24.8702016 193.245566,25.7559922 191.684588,26.0501205 C188.730882,26.5968026 187.638057,25.7603379 187.626256,22.782873 C187.606418,17.6137131 187.606418,12.4442106 187.626256,7.27436553 C187.637031,5.15494486 187.061886,2.7883869 189.682614,1.46432701 L180.352556,1.46432701 C182.838862,2.65479917 182.397114,4.81789275 182.401732,6.78471513 C182.413019,12.0850651 182.413019,17.3855863 182.401732,22.6862788 C182.395575,24.651046 182.83014,26.8095154 180.098077,27.7225361 Z" id="Path"></path><path d="M139.947275,63.3303447 C138.767229,64.8619794 137.330652,65.8787875 135.35074,66.0262478 C132.734117,66.2214914 131.89218,65.4898417 131.880379,62.8499427 C131.855068,57.4098394 131.8537,51.9692224 131.876275,46.5280915 C131.881406,44.6105938 131.471468,42.4937421 133.928529,41.3803398 L124.642081,41.3803398 L124.146462,41.7626062 C127.327455,42.4603452 126.696387,44.7508609 126.71691,46.6883968 C126.773346,51.931715 126.743076,57.1760609 126.733328,62.419893 C126.729223,64.4524816 127.127873,66.6561653 124.459944,67.5856276 C125.183876,68.3141946 125.868303,68.0316051 126.479874,68.0367431 C129.105733,68.0593503 131.877301,67.5034198 134.323587,68.1626239 C137.970955,69.1455213 139.704083,67.8599963 140.726618,64.6405321 C141.000081,63.779405 142.124203,63.2214194 141.73017,62.0751339 C140.549612,61.7725063 140.373118,62.7780109 139.947275,63.3303447 Z" id="Path"></path></g></g></g></g></g></svg> 